<?xml version="1.0" encoding="utf-8"?>
<!-- Generator: Adobe Illustrator 27.9.5, SVG Export Plug-In . SVG Version: 9.03 Build 54986)  -->
<svg version="1.1" id="Calque_4" xmlns="http://www.w3.org/2000/svg" xmlns:xlink="http://www.w3.org/1999/xlink" x="0px" y="0px"
	 viewBox="0 0 990 990" style="enable-background:new 0 0 990 990;" xml:space="preserve">
<style type="text/css">
	.st0{fill:#2F4798;}
	.st1{fill:#FFFFFF;}
</style>
<circle class="st0" cx="495" cy="495" r="490"/>
<path class="st1" d="M850,530H655V420h195c19.3,0,35-15.7,35-35c0-9.7-3.9-18.4-10.2-24.8c-6.3-6.4-15.1-10.2-24.8-10.2H655v-45
	c0-11-9-20-20-20H355c-11,0-20,9-20,20v45H140c-9.7,0-18.4,3.9-24.8,10.2c-6.4,6.3-10.2,15.1-10.2,24.8c0,19.3,15.7,35,35,35h195
	v109H140c-9.7,0-18.4,3.9-24.8,10.2c-6.4,6.3-10.2,15.1-10.2,24.8c0,19.3,15.7,35,35,35h195v86c0,11,9,20,20,20h67.5v41l60,60h25
	l60-60v-41H635c11,0,20-9,20-20v-85h195c19.3,0,35-15.7,35-35c0-9.7-3.9-18.4-10.2-24.8S859.7,530,850,530z M655,370h195
	c8.3,0,15,6.7,15,15s-6.7,15-15,15H655V370z M335,579H140c-8.3,0-15-6.7-15-15s6.7-15,15-15h195V579z M335,400H140
	c-8.3,0-15-6.7-15-15s6.7-15,15-15h195V400z M547.5,736l-50,50h-5l-50-50v-30h105V736z M635,685H355V305h280V685z M850,580H655v-30
	h195c8.3,0,15,6.7,15,15S858.3,580,850,580z"/>
<path class="st1" d="M495,510c-41.4,0-75,33.6-75,75s33.6,75,75,75c41.4,0,75-33.6,75-75S536.4,510,495,510z M495,640
	c-30.4,0-55-24.6-55-55s24.6-55,55-55c30.4,0,55,24.6,55,55S525.4,640,495,640z"/>
</svg>
